<svg xmlns="http://www.w3.org/2000/svg" viewBox="0 0 220 180" role="img" aria-labelledby="title desc">
  <title id="title">GerencIA Educação</title>
  <desc id="desc">Símbolo da plataforma GerencIA Educação</desc>
  <g fill="none" stroke="#00C7EA" stroke-linecap="round" stroke-linejoin="round">
    <path d="M25 72 110 24l85 48-85 49-85-49Z" stroke-width="10"/>
    <path d="M56 91v35c19 2 37 9 54 21 17-12 35-19 54-21V91" stroke-width="8"/>
    <path d="M47 126c22 1 43 9 63 22 20-13 41-21 63-22" stroke-width="8"/>
    <path d="M43 145c23 2 46 10 67 23 21-13 44-21 67-23" stroke="#0798D6" stroke-width="8"/>
    <circle cx="110" cy="72" r="15" stroke-width="9"/>
    <path d="M110 88v58" stroke-width="9"/>
    <path d="M80 97c11 0 20 7 25 16" stroke-width="9"/>
    <path d="M140 97c-11 0-20 7-25 16" stroke-width="9"/>
    <circle cx="74" cy="97" r="10" fill="#00C7EA" stroke-width="0"/>
    <circle cx="146" cy="97" r="10" fill="#00C7EA" stroke-width="0"/>
  </g>
</svg>
